<svg width="99" height="62" viewBox="0 0 99 62" fill="none" xmlns="http://www.w3.org/2000/svg">
<g clip-path="url(#clip0_332_27046)">
<path d="M14.6425 14.1374C17.6187 14.1374 20.3568 13.1616 22.5711 11.4956L22.2615 10.02C20.0949 11.3528 17.4758 12.162 14.6425 12.162C11.833 12.162 9.21391 11.3766 7.02344 10.02L6.71391 11.4956C8.95201 13.1616 11.6901 14.1374 14.6425 14.1374ZM25.5473 4.99808C27.0949 4.99808 27.4996 3.90326 27.4996 2.52284H29.3568C29.4044 3.95086 29.0711 5.14088 27.7377 5.83109L29.6663 9.04415V9.23455H27.6901L26.0711 6.4261C25.9044 6.4737 25.7139 6.52131 25.4996 6.52131H25.0472V9.23455H23.0949V0.238004H25.0472V4.99808H25.5473ZM34.9996 4.23647C34.5472 4.02226 34.1187 3.95086 33.7377 3.97466C32.833 4.02226 32.1187 4.49827 32.1187 5.9977C32.1187 7.37812 32.833 7.80653 33.833 7.83033C34.1901 7.85413 34.5949 7.78273 34.9996 7.66372V4.23647ZM36.9044 8.87754C36.0711 8.99654 35.3568 9.37735 34.0472 9.40115C31.9996 9.42495 30.1663 8.61574 30.1663 5.9977C30.1663 3.66526 31.5234 2.38004 33.4044 2.38004C35.333 2.38004 36.9282 3.14165 36.9282 3.14165V8.87754H36.9044ZM11.9282 4.23647C11.4758 4.02226 11.0472 3.95086 10.6425 3.97466C9.73772 4.02226 9.02344 4.49827 9.02344 5.9977C9.02344 7.37812 9.73772 7.80653 10.7377 7.83033C11.0949 7.85413 11.4996 7.78273 11.9044 7.66372V4.23647H11.9282ZM13.8092 8.87754C12.9758 8.99654 12.2615 9.37735 10.952 9.40115C8.90439 9.42495 7.07106 8.61574 7.07106 5.9977C7.07106 3.66526 8.4282 2.38004 10.3092 2.38004C12.2377 2.38004 13.833 3.14165 13.833 3.14165V8.87754H13.8092ZM17.1425 7.63992C17.5711 7.75892 17.952 7.83033 18.3092 7.80653C19.3092 7.78273 20.0234 7.35432 20.0234 5.9739C20.0234 4.47447 19.333 3.99846 18.4044 3.95086C18.0234 3.92706 17.5711 4.04607 17.1425 4.30787V7.63992ZM15.2377 0.238004H17.1901V2.68944C17.7377 2.47524 18.2615 2.35624 18.7615 2.35624C20.6425 2.33244 21.9996 3.64146 21.9996 5.9739C21.9996 8.61574 20.1663 9.37735 18.1187 9.37735C16.952 9.40115 16.2139 8.99654 15.2615 8.85374V0.238004H15.2377ZM2.52344 0.975816C2.52344 0.380806 2.99963 0 3.57106 0C4.16629 0 4.64249 0.380806 4.64249 0.975816C4.64249 1.57083 4.1901 1.92783 3.57106 1.92783C2.99963 1.92783 2.52344 1.57083 2.52344 0.975816ZM6.28534 2.73704L3.33296 7.56852H6.26153V9.25835H0.523438V9.04415L3.49963 4.14127H0.737723V2.52284H6.28534V2.73704Z" fill="#006420"/>
<path d="M99 22.3248C98.9286 22.3962 98.881 22.4676 98.8095 22.539C93.381 28.7509 90 36.01 88.619 43.3881H83.6905C84.0238 36.2242 85.6429 29.0603 88.6429 22.3248H99ZM26.1667 42.4599C26.1667 45.5301 24.619 47.2914 22.1905 47.2914C19.7619 47.2914 18.4286 45.6491 18.4286 42.8645V31.2261H12.1667V44.3639C12.1667 49.7428 15.0952 53.0749 19.9762 53.0749C22.7857 53.0749 24.9286 51.8134 26.1905 49.7904V52.5036H32.4762V31.2261H26.1905V42.4599H26.1667ZM37.1667 51.0994C39.2381 52.2656 41.8571 53.0273 45.3095 53.0273C50.3095 53.0273 54.2381 50.4092 54.2381 45.6253C54.2381 37.6522 42.9524 40.3178 42.9524 37.3904C42.9524 36.5336 43.6429 35.7958 45.7143 35.7958C48.4286 35.7958 51.0952 36.8668 53.2143 38.8184V32.3923C51.1905 31.3927 48.6429 30.6311 45.9286 30.6311C40.1905 30.6311 36.9286 33.7013 36.9286 38.033C36.9286 45.8871 48.0476 42.8169 48.0476 46.1013C48.0476 47.1724 47.1429 47.7436 45.2857 47.7436C42.4762 47.7436 39.4762 46.4107 37.1905 44.5543V51.0994H37.1667ZM64.5714 41.1985C64.5714 38.271 66.1667 36.4146 68.619 36.4146C71.0238 36.4146 72.4048 38.0092 72.4048 40.7701V52.4798H78.6905V39.342C78.6905 33.9631 75.7143 30.6311 70.8333 30.6311C67.9524 30.6311 65.881 31.8449 64.5476 33.9155V22.3248H58.2619V52.4798H64.5476V41.1985H64.5714ZM3.66667 28.7033C5.7381 28.7033 7.33333 26.9896 7.33333 25.038C7.33333 23.0864 5.7381 21.3727 3.66667 21.3727C1.59524 21.3727 0 23.1102 0 25.038C0 26.9658 1.59524 28.7033 3.66667 28.7033ZM86.0476 52.8368C88.119 52.8368 89.7143 51.1232 89.7143 49.1716C89.7143 47.22 88.119 45.5063 86.0476 45.5063C83.9762 45.5063 82.381 47.22 82.381 49.1716C82.381 51.1232 83.9762 52.8368 86.0476 52.8368ZM0.52381 42.4123V52.932V62.0238C4.40476 61.3574 6.80952 58.3347 6.80952 53.2891V31.2261H0.52381V42.4123Z" fill="#006420"/>
</g>
<defs>
<clipPath id="clip0_332_27046">
<rect width="99" height="62" fill="white"/>
</clipPath>
</defs>
</svg>
